<svg xmlns="http://www.w3.org/2000/svg" viewBox="0 0 1210.14 411.4"><defs><style>.cls-1{fill:#7b879c;}</style></defs><title>pickup</title><g id="FWheel"><path id="Front-2" data-name="Front" class="cls-1" d="M136.28,286.08c7-29.46,35.65-54.26,35.65-54.26,69.76-52.7,131.76,0,131.76,0H381.2L335,126.43a13.71,13.71,0,0,1-2,.7C-13.19,162.25,13.68,229.94,10.64,236.25c0,52.67,0,78.89,20.55,83.41S58,337.28,58,337.28h77.42A125,125,0,0,1,136.28,286.08Z"/><path id="UCarriage-2" data-name="UCarriage" class="cls-1" d="M872.26,245.44H318.42s26.21,18.61,25.42,91.84h509.7C852.32,319.56,851.54,274,872.26,245.44Z"/><circle id="BWheel-2" data-name="BWheel" class="cls-1" cx="954.83" cy="312.37" r="87.57"/><circle id="FWheel-2" data-name="FWheel" class="cls-1" cx="238.24" cy="312.11" r="87.57"/><path class="cls-1" d="M566.64,7.33C492.91,27.41,443.36,60.65,443.36,60.65,393,94,365.1,110.68,350,119l49,112.86H695.47s38.95-181.36,0-220.31C675.07-8.89,566.64,7.33,566.64,7.33ZM412,158.8s-9.51-4.55-5.66-13.48C412.7,130.45,434,103.43,502,65.09c60.75-31.79,122.42-36.61,174.45-35-.54,38.67-9.66,91.55-21,120.71C570.21,157.73,412,158.8,412,158.8Z"/><path class="cls-1" d="M1182.9,167c-31.34-36.43-178.67-32.6-178.67-32.6l-285.74,9v84.81s198.8-15.81,265.16-13.91c31.08.88,70.12,7.7,73.81,100.09l0,.8c2.57,9.76,91,9.14,91.4-.8,9.29-8.7,30.32-8.75,34.71-16.93,31.62-65.35-.85-129.53-.85-129.53C1182.8,167.63,1183.12,167.24,1182.9,167Z"/></g></svg>