<svg xmlns="http://www.w3.org/2000/svg" viewBox="0 0 1210.14 411.4"><defs><style>.cls-1{fill:#7b879c;}</style></defs><title>sedan</title><g id="Back"><path class="cls-1" d="M1185.91,166.26c12.7-83.81,4.3-70.22-26-71.11-35.43-1.27-97.6-.85-97.6-.85l-53.85-27.24L986.81,212.63s70.12,7.7,73.81,100.09l0,.8c2.57,9.76,91,9.14,91.4-.8,9.29-8.7,30.32-8.75,34.71-16.93C1218.38,230.44,1185.91,166.26,1185.91,166.26Z"/></g><g id="Front"><path id="Front-2" data-name="Front" class="cls-1" d="M139.44,284.38c7-29.46,35.65-54.26,35.65-54.26,69.76-52.7,131.76,0,131.76,0h77.51L338.15,124.73a13.71,13.71,0,0,1-2,.7C-10,160.55,16.84,228.24,13.8,234.55c0,52.67,0,78.9,20.55,83.42s26.81,17.61,26.81,17.61h77.42A125,125,0,0,1,139.44,284.38Z"/></g><g id="UCarriage"><path id="UCarriage-2" data-name="UCarriage" class="cls-1" d="M875.42,243.74H321.58s26.21,18.61,25.42,91.84H856.7C855.48,317.86,854.7,272.32,875.42,243.74Z"/></g><g id="CCabin"><path id="CCabin-2" data-name="CCabin" class="cls-1" d="M990.35,57.9C904.85,6.26,794.79,9.81,794.79,9.81H583.24C504.22,17.12,446.52,59,446.52,59c-50.41,33.39-78.26,50-93.38,58.31l49,112.86H894.35c43.4-34.1,75.18-20.92,75.18-20.92l23.7-149.85ZM658.56,149.1c-85.19,6.93-243.45,8-243.45,8s-9.51-4.55-5.66-13.48c6.41-14.87,27.71-41.89,95.66-80.23,60.75-31.79,122.42-36.61,174.45-35C679,67.06,669.9,119.94,658.56,149.1Zm238.6-5.58c-58,7.68-130.89,7.65-204.52,4.54-6.81-34.18-1.78-86.55,7-113,2.53-10.43,103.92-6.95,139.11,2,40.64,14.38,54.89,53.77,66,100C904,139.45,899.55,142.83,897.16,143.52Z"/></g><g id="BWheel"><circle id="BWheel-2" data-name="BWheel" class="cls-1" cx="957.99" cy="310.67" r="87.57"/></g><g id="FWheel"><circle id="FWheel-2" data-name="FWheel" class="cls-1" cx="241.4" cy="310.41" r="87.57"/></g></svg>